<?xml version="1.0" encoding="utf-8"?>
<!-- Generator: Adobe Illustrator 24.2.3, SVG Export Plug-In . SVG Version: 6.00 Build 0)  -->
<svg version="1.1" id="Layer_1" xmlns="http://www.w3.org/2000/svg" xmlns:xlink="http://www.w3.org/1999/xlink" x="0px" y="0px"
	 viewBox="0 0 818 818" style="enable-background:new 0 0 818 818;" xml:space="preserve">
<style type="text/css">
	.st0{fill:#EB725F;}
	.st1{fill:#6E7FDD;}
	.st2{clip-path:url(#SVGID_2_);}
	.st3{fill:#B3C9F9;}
	.st4{opacity:0.1;fill:#0046A0;enable-background:new    ;}
	.st5{clip-path:url(#SVGID_4_);}
	.st6{fill:#EDF0FC;}
	.st7{fill:#F5F9FF;}
	.st8{fill:#D0DBF7;}
	.st9{fill:#F9AB43;}
	.st10{fill:#FFCF74;}
	.st11{clip-path:url(#SVGID_6_);}
	.st12{opacity:0.3;}
	.st13{fill:#FFFFFF;}
	.st14{fill:#E2E6FF;}
	.st15{fill:#CAD2F9;}
</style>
<g id="OBJECTS">
	<path class="st0" d="M123.4,471.2c-0.4-0.6-0.9-1.2-1.4-1.8c-5.2-6.9-10.7-13.5-16.5-19.9c0.2-12.8-0.2-61.2-13.1-58.8
		c-12,2.3,3.7,40.7,10.3,55.8c-2.5-2.7-5.1-5.3-7.7-7.9c-8.8-11.4-38.2-48-46.8-38.1c-8,9.2,27,29.4,42.4,37.7
		c2.8,2.7,5.6,5.5,8.4,8.4c-14.8-7.4-51.8-24.5-55.1-12.8c-3.6,12.7,44.8,15.3,57.9,15.8c6.8,7.4,13.2,15.1,19.2,23.1
		c-13.3-8.4-50-30.4-54.5-18.8c-4.8,12.5,44.3,19.8,56.5,21.5c6.4,8.9,12.4,18.2,17.8,27.8c-12.7-10.7-44.4-36-50.4-25.5
		c-6.5,11.4,39.7,25.5,52.4,29.1c0.9,1.6,1.8,3.2,2.6,4.8c4.3,8.1,8.3,16.5,12,24.9c-11.5-11.3-42.2-39.7-49-29.5
		c-7.3,11,38.3,28.4,50.4,32.8c5.4,12.9,10,26.2,13.8,39.7c-9.8-12.8-36.2-45.2-44.4-36c-8.7,9.9,33.8,33.5,45.3,39.6
		c0.2,0.6,0.3,1.1,0.5,1.8c1.2,4.6,2.4,9.3,3.2,14c0.2,0.8,1,1.2,1.8,1c0.6-0.2,1.1-0.8,1-1.4c-0.8-4.7-1.8-9.3-3-14
		c5.8-11.7,26.4-55,13.7-58.4c-11.6-3.1-14.2,36.6-15,53.7c-2.2-7.7-4.7-15.3-7.4-22.8c-1.9-5.3-3.9-10.6-6.1-15.9
		c4-12,18.6-58.5,5.3-60c-12-1.5-8.9,39-7.2,55.8c-4.2-9.9-8.9-19.5-14-29c3.2-12.3,14.5-59.6,1.2-60.3c-12.2-0.6-6.1,40.5-3.2,56.7
		c-5.6-10-11.7-19.6-18.3-29c1.4-13.4,5.6-60.5-7.4-59.3C107.1,417,118,454.8,123.4,471.2z"/>
	<path class="st0" d="M737.4,393.2c0.3-0.7,0.7-1.4,1-2.1c3.6-7.8,6.8-15.8,9.6-24c11.3-6,53.7-29.4,45.3-39.6
		c-7.7-9.4-34,22.6-44,35.7c1.2-3.6,2.3-7.1,3.3-10.7c5.8-13.1,23.9-56.5,11.1-59.3c-11.9-2.6-13,37.8-12.9,55.2
		c-1,3.8-2.1,7.6-3.3,11.4c-0.6-16.6-3.2-57.2-15-54.5c-12.8,2.9,7.9,46.6,13.7,58.4c-3.2,9.6-6.9,18.9-11.2,28.1
		c1.1-15.7,2.8-58.5-9.6-56.9c-13.2,1.7,3.7,48.4,8.1,59.9c-4.8,9.9-10,19.6-15.8,29c3.4-16.3,10.4-56.2-1.7-56.4
		c-13.2-0.2-3.5,47.1-0.6,60c-1,1.5-2,3.1-3,4.6c-5.1,7.7-10.5,15.2-16.2,22.5c4.4-15.5,14.7-56.1,2.5-57.1
		c-13.2-1.1-6.7,47.2-4.7,60c-8.8,11-18.2,21.3-28.3,31.1c6.6-14.7,22.5-53.4,10.5-56.2c-12.9-3-13.2,45.8-13.1,58.8
		c-0.4,0.4-0.8,0.8-1.3,1.2c-3.6,3.3-7.1,6.5-10.8,9.5c-1.4,1.1,0.3,3.4,1.8,2.3c3.7-3,7.3-6.1,10.8-9.3c13.1-0.5,61-3.1,57.9-15.9
		c-2.8-11.6-39,4.9-54.3,12.5c5.7-5.6,11.2-11.5,16.5-17.4c3.8-4.2,7.5-8.6,11.1-13c12.5-2.2,60.2-11.6,55.3-23.9
		c-4.5-11.2-38.6,10.7-52.4,20.3c6.7-8.4,12.9-17.1,18.8-26.1c12.3-3.1,59.3-15.8,53.5-27.7c-5.3-11-38.5,14-51.3,24.3
		c6.1-9.7,11.7-19.7,16.7-29.9c12.5-5.1,55.9-24,48.6-34.8C777.2,353,749.3,380.7,737.4,393.2z"/>
	<path class="st1" d="M217.8,430.3c3.3-7.4,5.7-15.1,7.1-23.1c-0.4-4.1-1-8.1-1.8-12c-0.6-3.4-1.4-6.6-2.3-9.9
		c-2.2,4.1-5.2,7.8-8.6,11c2.7-6.1,4.8-12.4,6.2-18.8c-2.5-7.3-5.7-14.3-9.5-21c-1.1,3.9-2.7,7.6-4.9,11.1c0.9-5.6,1.4-11.3,1.3-17
		c-0.7-1.1-1.4-2.3-2.2-3.4c-4.2-6.1-8.9-11.9-14.1-17.2c-0.3,4.5-1.3,8.9-2.9,13c-0.1-5.9-0.7-11.8-1.8-17.6
		c-5.4-5-11.3-9.5-17.6-13.5c0.3,4.3-0.1,8.5-1,12.7c-0.9-5.3-2.2-10.5-3.8-15.6c-6-3.5-12.3-6.4-18.8-8.9c0.8,3.5,1.2,7,1.1,10.6
		c-1.6-4.2-3.4-8.2-5.5-12.2c-5.1-1.8-10.4-3.3-15.7-4.4c-6.1-1.4-12.4-2.3-18.7-2.6c-1.9,6-3.4,12.1-4.2,18.4
		c-0.8,5.4-1.3,10.8-1.5,16.3c2.9,3.4,6.1,6.5,9.4,9.5c-3.3-1.2-6.5-2.8-9.5-4.8c0,6.9,0.5,13.9,1.6,20.7c4.2,3.4,8.6,6.4,13.2,9.2
		c-4.2-0.6-8.3-1.8-12.2-3.6c1.5,7.3,3.6,14.4,6.3,21.2c5,3.1,10.3,5.8,15.8,8c-4.5,0-9-0.7-13.3-2.1c3.1,6.8,6.8,13.3,11,19.4
		c0.8,1.1,1.6,2.2,2.4,3.2c5.3,2.1,10.8,3.7,16.4,4.9c-4,0.8-8.1,1-12.1,0.6c4.9,6,10.3,11.4,16.2,16.4c6.6,1,13.2,1.3,19.8,1
		c-4.2,2.1-8.7,3.5-13.3,4.1c2.7,2,5.5,3.9,8.4,5.7c3.3,2.1,6.9,4.1,10.6,5.9c7.9,1.5,16,2,24,1.7c-3.6,1.9-7.5,3.2-11.6,3.8
		c1.2,0.4,2.4,0.9,3.6,1.3c5.2,1.8,10.6,3.3,16,4.5c6.1,1.4,12.3,2.3,18.6,2.7c1.9-6,3.3-12.1,4.2-18.3c0.8-5.5,1.3-11,1.5-16.5
		c0-1.3,0-2.5,0-3.8C223.5,424.4,220.8,427.6,217.8,430.3z"/>
	<g>
		<defs>
			<path id="SVGID_1_" d="M217.8,430.3c3.3-7.4,5.7-15.1,7.1-23.1c-0.4-4.1-1-8.1-1.8-12c-0.6-3.4-1.4-6.6-2.3-9.9
				c-2.2,4.1-5.2,7.8-8.6,11c2.7-6.1,4.8-12.4,6.2-18.8c-2.5-7.3-5.7-14.3-9.5-21c-1.1,3.9-2.7,7.6-4.9,11.1
				c0.9-5.6,1.4-11.3,1.3-17c-0.7-1.1-1.4-2.3-2.2-3.4c-4.2-6.1-8.9-11.9-14.1-17.2c-0.3,4.5-1.3,8.9-2.9,13
				c-0.1-5.9-0.7-11.8-1.8-17.6c-5.4-5-11.3-9.5-17.6-13.5c0.3,4.3-0.1,8.5-1,12.7c-0.9-5.3-2.2-10.5-3.8-15.6
				c-6-3.5-12.3-6.4-18.8-8.9c0.8,3.5,1.2,7,1.1,10.6c-1.6-4.2-3.4-8.2-5.5-12.2c-5.1-1.8-10.4-3.3-15.7-4.4
				c-6.1-1.4-12.4-2.3-18.7-2.6c-1.9,6-3.4,12.1-4.2,18.4c-0.8,5.4-1.3,10.8-1.5,16.3c2.9,3.4,6.1,6.5,9.4,9.5
				c-3.3-1.2-6.5-2.8-9.5-4.8c0,6.9,0.5,13.9,1.6,20.7c4.2,3.4,8.6,6.4,13.2,9.2c-4.2-0.6-8.3-1.8-12.2-3.6
				c1.5,7.3,3.6,14.4,6.3,21.2c5,3.1,10.3,5.8,15.8,8c-4.5,0-9-0.7-13.3-2.1c3.1,6.8,6.8,13.3,11,19.4c0.8,1.1,1.6,2.2,2.4,3.2
				c5.3,2.1,10.8,3.7,16.4,4.9c-4,0.8-8.1,1-12.1,0.6c4.9,6,10.3,11.4,16.2,16.4c6.6,1,13.2,1.3,19.8,1c-4.2,2.1-8.7,3.5-13.3,4.1
				c2.7,2,5.5,3.9,8.4,5.7c3.3,2.1,6.9,4.1,10.6,5.9c7.9,1.5,16,2,24,1.7c-3.6,1.9-7.5,3.2-11.6,3.8c1.2,0.4,2.4,0.9,3.6,1.3
				c5.2,1.8,10.6,3.3,16,4.5c6.1,1.4,12.3,2.3,18.6,2.7c1.9-6,3.3-12.1,4.2-18.3c0.8-5.5,1.3-11,1.5-16.5c0-1.3,0-2.5,0-3.8
				C223.5,424.4,220.8,427.6,217.8,430.3z"/>
		</defs>
		<clipPath id="SVGID_2_">
			<use xlink:href="#SVGID_1_"  style="overflow:visible;"/>
		</clipPath>
		<g class="st2">
			<path class="st3" d="M200.2,332.8l-1.8-0.2c-2.1,22.1-9.9,43.2-22.7,61.3l-15.8-23c21.7-30.1,18.9-68.8,18.9-69.2h-1.8
				c0,0.4,2.7,38-18.3,67.5l-14-20.4c21.6-30.3,1.2-73.1,1-73.6l-1.6,0.7c0.2,0.4,19.9,41.7-0.5,71.1l-15.1-21.9
				c7.9-30.1-12.6-68.1-12.9-68.5l-1.6,0.8c0.2,0.4,19.7,36.5,13,65.6l-31-45.2l-1.5,1l31.1,45.2c-29.6-4.2-56.3-35.3-56.6-35.6
				l-1.4,1.2c0.3,0.3,28.5,33.1,59.4,36.5l15.1,21.9c-34.8,8.5-66.3-24.7-66.6-24.9l-1.3,1.2c0.3,0.3,33,34.7,69,25.4l14.1,20.4
				c-35,8.9-69.2-7-69.6-7.1l-0.7,1.8c0.3,0.2,35.6,16.6,71.4,7.1l15.8,22.8c-21.5,5.4-44,5.1-65.3-0.9l-0.5,1.8
				c21.9,6.1,45,6.4,66.9,0.7l11.9,17.3c-35,9.2-60.9,5.4-61.2,5.3L126,421c0.3,0,26.8,4,62.5-5.6l13,18.9
				c-29.3,7.7-51,4.5-51.2,4.5l-0.2,1.8c0.2,0,22.6,3.3,52.5-4.7l10.8,15.7c-10.4,2.9-21.3,4-32,3.1l-0.1,1.8
				c0.6,0.1,14.2,1.9,33.3-3.3l21,30.6l1.5-1L216,452.5c11.7-15.9,14.8-29.4,15-30l-1.8-0.5c-3,10.4-7.8,20.2-14.3,28.8l-10.8-15.7
				c18.2-25.1,23.1-47.1,23.1-47.4l-1.8-0.5c0,0.2-4.9,21.6-22.6,46.3L190,414.5c21.7-29.9,27.5-56.1,27.6-56.3l-1.8-0.5
				c0,0.3-5.8,25.8-27,55.2L177,395.6C190.1,377.1,198.1,355.4,200.2,332.8z"/>
		</g>
	</g>
	<path class="st4" d="M205.3,350.6c-0.7-1.1-1.4-2.3-2.2-3.4c-4.2-6.1-8.9-11.9-14.1-17.2c-0.3,4.5-1.3,8.9-2.9,13
		c-0.1-5.9-0.7-11.8-1.8-17.6c-5.4-5-11.3-9.5-17.6-13.5c0.3,4.3-0.1,8.5-1,12.7c-0.9-5.3-2.2-10.5-3.8-15.6
		c-6-3.5-12.3-6.4-18.8-8.9c0.8,3.5,1.2,7,1.1,10.6c-1.6-4.2-3.4-8.2-5.5-12.2c-5.1-1.8-10.4-3.3-15.7-4.4
		c-6.1-1.4-12.4-2.3-18.7-2.6l115.6,168.2c1.9-6,3.3-12.1,4.2-18.3c0.8-5.5,1.3-11,1.5-16.5c0-1.3,0-2.5,0-3.8
		c-2.1,3.5-4.7,6.7-7.7,9.4c3.3-7.4,5.7-15.1,7.1-23.1c-0.4-4.1-1-8.1-1.8-12c-0.6-3.4-1.4-6.6-2.3-9.9c-2.2,4.1-5.2,7.8-8.6,11
		c2.7-6.1,4.8-12.4,6.2-18.8c-2.5-7.3-5.7-14.3-9.5-21c-1.1,3.9-2.7,7.6-4.9,11.1C204.9,362,205.3,356.3,205.3,350.6z"/>
	<path class="st1" d="M702,585.8c8.1,0.3,16.1-0.3,24-1.9c3.7-1.9,7.2-3.9,10.5-6c2.9-1.8,5.7-3.8,8.3-5.8c-4.6-0.6-9.2-1.9-13.4-4
		c6.6,0.3,13.3-0.1,19.8-1.1c5.8-5,11.2-10.5,16-16.5c-4,0.4-8.1,0.3-12.1-0.5c5.6-1.2,11-2.9,16.3-5c0.8-1.1,1.6-2.2,2.3-3.3
		c4.1-6.2,7.8-12.7,10.8-19.4c-4.3,1.3-8.7,2-13.2,2c5.5-2.3,10.7-5,15.7-8.2c2.7-6.9,4.7-14.1,6.1-21.4c-3.8,1.8-7.9,3.1-12.2,3.7
		c4.6-2.8,9-5.9,13.2-9.3c1-6.9,1.5-13.8,1.4-20.7c-2.9,2-6,3.7-9.3,4.9c3.3-3,6.4-6.2,9.3-9.6c-0.2-5.4-0.8-10.9-1.7-16.2
		c-0.9-6.2-2.4-12.4-4.4-18.3c-6.3,0.4-12.5,1.3-18.7,2.8c-5.3,1.2-10.5,2.7-15.7,4.6c-2,4-3.8,8-5.3,12.2c-0.1-3.5,0.2-7.1,1-10.6
		c-6.5,2.5-12.7,5.6-18.7,9.1c-1.6,5.1-2.8,10.4-3.7,15.7c-1-4.1-1.4-8.4-1.1-12.7c-6.2,4-12,8.6-17.4,13.6
		c-1.1,5.8-1.7,11.7-1.8,17.6c-1.7-4.1-2.7-8.5-3-13c-5.1,5.4-9.8,11.1-14,17.3c-0.7,1.1-1.4,2.2-2.2,3.4c0,5.7,0.5,11.4,1.5,17
		c-2.2-3.4-3.9-7.1-5-11c-3.7,6.7-6.9,13.8-9.3,21.1c1.5,6.5,3.6,12.7,6.4,18.8c-3.5-3.1-6.4-6.8-8.7-10.9c-0.9,3.2-1.6,6.5-2.2,9.9
		c-0.7,3.9-1.3,7.9-1.6,12c1.5,7.9,4,15.6,7.3,23c-3.1-2.7-5.7-5.9-7.8-9.4c0,1.2,0,2.5,0.1,3.8c0.2,5.5,0.8,11,1.6,16.5
		c0.9,6.2,2.4,12.3,4.3,18.3c6.3-0.4,12.5-1.4,18.6-2.8c5.4-1.2,10.7-2.8,15.9-4.7c1.2-0.4,2.4-0.9,3.6-1.3
		C709.6,588.9,705.7,587.6,702,585.8z"/>
	<g>
		<defs>
			<path id="SVGID_3_" d="M702,585.8c8.1,0.3,16.1-0.3,24-1.9c3.7-1.9,7.2-3.9,10.5-6c2.9-1.8,5.7-3.8,8.3-5.8
				c-4.6-0.6-9.2-1.9-13.4-4c6.6,0.3,13.3-0.1,19.8-1.1c5.8-5,11.2-10.5,16-16.5c-4,0.4-8.1,0.3-12.1-0.5c5.6-1.2,11-2.9,16.3-5
				c0.8-1.1,1.6-2.2,2.3-3.3c4.1-6.2,7.8-12.7,10.8-19.4c-4.3,1.3-8.7,2-13.2,2c5.5-2.3,10.7-5,15.7-8.2c2.7-6.9,4.7-14.1,6.1-21.4
				c-3.8,1.8-7.9,3.1-12.2,3.7c4.6-2.8,9-5.9,13.2-9.3c1-6.9,1.5-13.8,1.4-20.7c-2.9,2-6,3.7-9.3,4.9c3.3-3,6.4-6.2,9.3-9.6
				c-0.2-5.4-0.8-10.9-1.7-16.2c-0.9-6.2-2.4-12.4-4.4-18.3c-6.3,0.4-12.5,1.3-18.7,2.8c-5.3,1.2-10.5,2.7-15.7,4.6
				c-2,4-3.8,8-5.3,12.2c-0.1-3.5,0.2-7.1,1-10.6c-6.5,2.5-12.7,5.6-18.7,9.1c-1.6,5.1-2.8,10.4-3.7,15.7c-1-4.1-1.4-8.4-1.1-12.7
				c-6.2,4-12,8.6-17.4,13.6c-1.1,5.8-1.7,11.7-1.8,17.6c-1.7-4.1-2.7-8.5-3-13c-5.1,5.4-9.8,11.1-14,17.3c-0.7,1.1-1.4,2.2-2.2,3.4
				c0,5.7,0.5,11.4,1.5,17c-2.2-3.4-3.9-7.1-5-11c-3.7,6.7-6.9,13.8-9.3,21.1c1.5,6.5,3.6,12.7,6.4,18.8c-3.5-3.1-6.4-6.8-8.7-10.9
				c-0.9,3.2-1.6,6.5-2.2,9.9c-0.7,3.9-1.3,7.9-1.6,12c1.5,7.9,4,15.6,7.3,23c-3.1-2.7-5.7-5.9-7.8-9.4c0,1.2,0,2.5,0.1,3.8
				c0.2,5.5,0.8,11,1.6,16.5c0.9,6.2,2.4,12.3,4.3,18.3c6.3-0.4,12.5-1.4,18.6-2.8c5.4-1.2,10.7-2.8,15.9-4.7
				c1.2-0.4,2.4-0.9,3.6-1.3C709.6,588.9,705.7,587.6,702,585.8z"/>
		</defs>
		<clipPath id="SVGID_4_">
			<use xlink:href="#SVGID_3_"  style="overflow:visible;"/>
		</clipPath>
		<g class="st5">
			<path class="st3" d="M786.3,533.7l-0.5-1.8c-21.3,6.2-43.8,6.7-65.3,1.4l15.6-23.1c35.9,9.1,71-7.6,71.3-7.8l-0.7-1.7
				c-0.3,0.2-34.4,16.4-69.4,7.7l13.9-20.6c36.1,8.9,68.5-25.7,68.8-26.1l-1.3-1.2c-0.3,0.3-31.5,33.8-66.4,25.6l14.9-22.1
				c30.9-3.7,58.8-36.7,59-37.1l-1.4-1.2c-0.3,0.3-26.7,31.7-56.3,36.1l30.6-45.4l-1.5-1l-30.6,45.4c-7-29.1,12.2-65.3,12.5-65.7
				l-1.6-0.8c-0.2,0.4-20.4,38.5-12.2,68.6l-14.9,22.1c-20.6-29.2-1.3-70.7-1.1-71.1l-1.6-0.7c-0.2,0.4-20.2,43.4,1.6,73.6
				l-13.9,20.6c-21.2-29.3-18.9-67-18.9-67.4h-1.8c0,0.4-2.4,39.2,19.6,69l-15.6,23.1c-12.9-18-20.9-39.1-23.1-61.1l-1.8,0.2
				c2.3,22.6,10.5,44.2,23.8,62.6l-11.7,17.4c-21.4-29.1-27.4-54.7-27.4-54.9l-1.8,0.6c0,0.2,6.1,26.4,28.1,56.1l-12.8,19
				c-17.9-24.4-22.9-45.8-23-46l-1.8,0.6c0,0.2,5.2,22.2,23.6,47.1l-10.7,15.8c-6.6-8.6-11.5-18.3-14.6-28.7l-1.8,0.6
				c0.1,0.6,3.4,14,15.3,29.8L658.7,622l1.5,1l20.8-30.8c19.1,5,32.8,3.1,33.3,3l-0.1-1.8c-10.8,1-21.6,0.1-32-2.8l10.7-15.8
				c30,7.7,52.3,4.3,52.6,4.2l-0.2-1.8c-0.2,0-21.9,3.4-51.3-4.1l12.8-19c35.7,9.2,62.2,5.1,62.5,5l-0.2-1.8
				c-0.3,0-26.2,4.1-61.2-4.9l11.7-17.4C741.6,540.6,764.6,540.1,786.3,533.7z"/>
		</g>
	</g>
	<path class="st4" d="M771.6,544.9c0.8-1.1,1.6-2.2,2.3-3.3c4.1-6.2,7.8-12.7,10.8-19.4c-4.3,1.3-8.7,2-13.2,2
		c5.5-2.3,10.7-5,15.7-8.2c2.7-6.9,4.7-14.1,6.1-21.4c-3.8,1.8-7.9,3.1-12.2,3.7c4.6-2.8,9-5.9,13.2-9.3c1-6.9,1.5-13.8,1.4-20.7
		c-2.9,2-6,3.7-9.4,4.9c3.3-3,6.4-6.2,9.3-9.6c-0.2-5.4-0.8-10.9-1.7-16.2c-0.9-6.2-2.4-12.4-4.4-18.3L675.6,598.3
		c6.3-0.4,12.5-1.4,18.6-2.8c5.4-1.2,10.7-2.8,15.9-4.7c1.2-0.4,2.4-0.9,3.6-1.3c-4-0.6-7.9-1.9-11.6-3.7c8.1,0.3,16.1-0.3,24-1.9
		c3.7-1.9,7.2-3.9,10.5-6c2.9-1.8,5.7-3.8,8.3-5.8c-4.6-0.6-9.2-1.9-13.4-4c6.6,0.3,13.3-0.1,19.8-1.1c5.8-5,11.2-10.5,16-16.5
		c-4,0.4-8.1,0.3-12.1-0.5C760.9,548.6,766.3,547,771.6,544.9z"/>
	<ellipse class="st6" cx="409" cy="704.1" rx="409" ry="30.4"/>
	<rect x="193.4" y="222.4" class="st7" width="519" height="465.6"/>
	<rect x="193.4" y="222.4" class="st8" width="519" height="55.1"/>
	<path class="st0" d="M235.3,249.9c0,5.8-4.7,10.6-10.6,10.6c-5.8,0-10.6-4.7-10.6-10.6c0-5.8,4.7-10.6,10.6-10.6
		C230.6,239.3,235.3,244.1,235.3,249.9L235.3,249.9z"/>
	<path class="st9" d="M270.9,249.9c0,5.8-4.7,10.6-10.6,10.6c-5.8,0-10.6-4.7-10.6-10.6c0-5.8,4.7-10.6,10.6-10.6
		C266.2,239.3,270.9,244.1,270.9,249.9L270.9,249.9z"/>
	<path class="st1" d="M306.5,249.9c0,5.8-4.7,10.6-10.6,10.6c-5.8,0-10.6-4.7-10.6-10.6c0-5.8,4.7-10.6,10.6-10.6
		S306.5,244.1,306.5,249.9L306.5,249.9z"/>
	<path class="st10" d="M636.4,436.4c2.5-6.3-1-11.5-7.8-11.5H378.7c-7.3,0.4-13.8,4.8-16.8,11.5l-55.4,140.4
		c-2.5,6.3,1,11.5,7.8,11.5h249.8c7.3-0.4,13.8-4.8,16.8-11.5L636.4,436.4z"/>
	<path class="st10" d="M294.6,564.9l55.4-140.4c3-6.7,9.5-11.1,16.8-11.5h196.1v-12.5c0-6.8-5.5-12.3-12.3-12.3h-87.5
		c-7.5-0.4-14.3-4.5-18.2-10.8l-11.9-22c-3.9-6.4-10.7-10.4-18.2-10.8H302.4c-6.8,0-12.3,5.5-12.3,12.3V564
		c0.1,5.9,4.2,10.9,9.9,12.1C294.8,575,292.4,570.4,294.6,564.9z"/>
	<path class="st0" d="M476.1,463.8c-25.7,0-46.6,20.9-46.6,46.6c0,25.7,20.9,46.6,46.6,46.6c25.7,0,46.6-20.9,46.6-46.6
		S501.8,463.8,476.1,463.8L476.1,463.8z M498.9,526.5l-6.7,6.7l-16-16l-16,16l-6.7-6.7l16-16l-16-16l6.7-6.7l16,16l16-16l6.7,6.7
		l-16,16L498.9,526.5z"/>
	<ellipse class="st0" cx="185.8" cy="689.7" rx="135.1" ry="22.1"/>
	<path class="st10" d="M223.8,412.5h-75.9L89.6,684.9c31.7,6.5,63.9,9.9,96.3,10.4c0,0,47.9,0,96.3-10.4L223.8,412.5z"/>
	<ellipse class="st0" cx="185.8" cy="412.5" rx="38" ry="5.8"/>
	<g>
		<defs>
			<path id="SVGID_5_" d="M223.8,412.5h-75.9L89.6,684.9c31.7,6.5,63.9,9.9,96.3,10.4c0,0,47.9,0,96.3-10.4L223.8,412.5z"/>
		</defs>
		<clipPath id="SVGID_6_">
			<use xlink:href="#SVGID_5_"  style="overflow:visible;"/>
		</clipPath>
		<g class="st11">
			<path class="st9" d="M184.2,672.8c-78.1,0-130.9-13.1-134.2-13.9l10.9-42.7l-5.3,21.4l5.3-21.4c1.1,0.3,113.7,27.9,251.2-0.2
				l8.9,43.3C276,668.4,230.1,672.9,184.2,672.8z"/>
			<path class="st9" d="M184.2,576.7c-78.1,0-130.9-13.1-134.2-13.9l10.9-42.7l-5.3,21.4l5.3-21.4c1.1,0.3,113.7,27.9,251.2-0.2
				l8.9,43.3C276,572.3,230.1,576.8,184.2,576.7z"/>
			<path class="st9" d="M184.2,480.6c-78.1,0-130.9-13.1-134.2-13.9L60.9,424l-5.3,21.4l5.3-21.4c1.1,0.3,113.7,27.9,251.2-0.2
				l8.9,43.3C275.9,476.1,230.1,480.7,184.2,480.6z"/>
		</g>
	</g>
	<path class="st4" d="M233.3,543.9c0,59.2-12.2,112.7-32,150.9c27.1-1.2,54.2-4.5,80.8-10l-58.2-272.3h-13.6
		C224.7,448.4,233.3,494.1,233.3,543.9z"/>
	<g class="st12">
		<path class="st13" d="M152,454.5l-4.2,20.1c-3.3,16.1-6.7,32.2-10,48.2c-4,19.5-8.1,39.1-12.1,58.6l-10.5,50.4
			c-1.8,8.2-3.8,16.3-5.1,24.5c0,0.1,0,0.2,0,0.3c-1.4,6.7,9.1,8.6,10.5,1.9l4.2-20.1c3.3-16.1,6.7-32.2,10-48.2
			c4-19.5,8.1-39.1,12.2-58.6c3.5-16.8,6.9-33.6,10.5-50.4c1.8-8.2,3.8-16.3,5.1-24.5c0-0.1,0-0.2,0-0.3
			C163.9,449.7,153.4,447.8,152,454.5L152,454.5z"/>
	</g>
	
		<rect x="426.1" y="652.1" transform="matrix(0.9627 -0.2707 0.2707 0.9627 -157.9228 175.3588)" class="st1" width="261.1" height="16"/>
	
		<rect x="569.5" y="631" transform="matrix(0.9616 -0.2745 0.2745 0.9616 -151.2214 197.2218)" class="st0" width="119.4" height="16.1"/>
	<circle class="st0" cx="686.1" cy="628.3" r="80.8"/>
	<circle class="st8" cx="686.6" cy="622.6" r="64.9"/>
	<path class="st13" d="M735.3,608.6l-7.6,2.2c-6.5-22.6-30.1-35.8-52.7-29.3l-2.2-7.7C699.7,566.2,727.6,581.8,735.3,608.6z"/>
	<polygon class="st14" points="626.5,219.5 549.4,196.1 503,349.1 622.9,385.4 656.7,273.9 	"/>
	<polygon class="st15" points="618.7,279.9 613.2,269.6 588.5,282.8 575.3,258.1 565,263.6 578.2,288.3 553.5,301.5 559,311.8 
		583.7,298.7 596.9,323.4 607.2,317.8 594,293.1 	"/>
	<polygon class="st14" points="421.8,114.7 343.5,133.8 381.4,289.1 503,259.5 475.5,146.3 	"/>
	<polygon class="st15" points="445.9,170.7 435.9,164.7 421.3,188.6 397.4,174 391.3,184 415.3,198.6 400.7,222.5 410.7,228.6 
		425.3,204.7 449.2,219.2 455.3,209.2 431.3,194.7 	"/>
	<polygon class="st14" points="696.3,128.7 676.4,128.7 676.4,108.8 669.3,108.8 669.3,128.7 649.4,128.7 649.4,135.8 669.3,135.8 
		669.3,155.7 676.4,155.7 676.4,135.8 696.3,135.8 	"/>
	<polygon class="st14" points="740.9,197.2 730,197.2 730,186.3 726.1,186.3 726.1,197.2 715.3,197.2 715.3,201 726.1,201 
		726.1,211.9 730,211.9 730,201 740.9,201 	"/>
	<polygon class="st14" points="621.2,178.3 608.1,178.3 608.1,165.1 603.4,165.1 603.4,178.3 590.3,178.3 590.3,182.9 603.4,182.9 
		603.4,196.1 608.1,196.1 608.1,182.9 621.2,182.9 	"/>
	<polygon class="st14" points="124,176.2 104.1,176.2 104.1,156.3 97.1,156.3 97.1,176.2 77.1,176.2 77.1,183.3 97.1,183.3 
		97.1,203.2 104.1,203.2 104.1,183.3 124,183.3 	"/>
	<polygon class="st14" points="210.9,164.3 200.1,164.3 200.1,153.5 196.2,153.5 196.2,164.3 185.4,164.3 185.4,168.2 196.2,168.2 
		196.2,179 200.1,179 200.1,168.2 210.9,168.2 	"/>
	<polygon class="st14" points="144.9,252.8 131.8,252.8 131.8,239.6 127.1,239.6 127.1,252.8 114,252.8 114,257.4 127.1,257.4 
		127.1,270.6 131.8,270.6 131.8,257.4 144.9,257.4 	"/>
	<path class="st15" d="M580.9,95.8c0,2.4-1.9,4.3-4.3,4.3c-2.4,0-4.3-1.9-4.3-4.3c0-2.4,1.9-4.3,4.3-4.3c0,0,0,0,0,0
		C578.9,91.5,580.9,93.4,580.9,95.8z"/>
	<path class="st15" d="M775.8,250.9c0,4.5-3.7,8.2-8.2,8.2c-4.5,0-8.2-3.7-8.2-8.2c0-4.5,3.7-8.2,8.2-8.2l0,0
		C772.1,242.7,775.8,246.4,775.8,250.9C775.8,250.9,775.8,250.9,775.8,250.9z"/>
	<path class="st15" d="M517.1,140.7c0,2.4-1.9,4.3-4.3,4.3c-2.4,0-4.3-1.9-4.3-4.3c0-2.4,1.9-4.3,4.3-4.3
		C515.1,136.4,517.1,138.4,517.1,140.7L517.1,140.7z"/>
	<path class="st15" d="M271.3,95.8c0,4.5-3.7,8.2-8.2,8.2c-4.5,0-8.2-3.7-8.2-8.2c0-4.5,3.7-8.2,8.2-8.2c0,0,0,0,0,0
		C267.6,87.7,271.3,91.3,271.3,95.8z"/>
	<path class="st15" d="M303,182.4c0,2.4-1.9,4.3-4.3,4.3c-2.4,0-4.3-1.9-4.3-4.3c0-2.4,1.9-4.3,4.3-4.3l0,0
		C301.1,178.1,303,180,303,182.4z"/>
	<path class="st15" d="M50.9,266c0,2.4-1.9,4.3-4.3,4.3c-2.4,0-4.3-1.9-4.3-4.3c0-2.4,1.9-4.3,4.3-4.3c0,0,0,0,0,0
		C48.9,261.6,50.9,263.5,50.9,266C50.9,265.9,50.9,266,50.9,266z"/>
</g>
</svg>
